<svg xmlns="http://www.w3.org/2000/svg" xmlns:xlink="http://www.w3.org/1999/xlink" xmlns:lucid="lucid" width="905" height="644"><g transform="translate(-1316 -121)" lucid:page-tab-id="0_0"><path d="M1360 366a6 6 0 0 1 6-6h808a6 6 0 0 1 6 6v348a6 6 0 0 1-6 6h-808a6 6 0 0 1-6-6z" stroke="#3a414a" stroke-width="2" fill-opacity="0"/><path d="M1640 386a6 6 0 0 1 6-6h188a6 6 0 0 1 6 6v168a6 6 0 0 1-6 6h-188a6 6 0 0 1-6-6z" stroke="#3a414a" stroke-width="2" fill="#e3fae3"/><use xlink:href="#a" transform="matrix(1,0,0,1,1645,385) translate(23.52105034722223 90.59027777777777)"/><use xlink:href="#b" transform="matrix(1,0,0,1,1645,385) translate(97.1755642361111 90.59027777777777)"/><path d="M1640 616a6 6 0 0 1 6-6h188a6 6 0 0 1 6 6v88a6 6 0 0 1-6 6h-188a6 6 0 0 1-6-6z" stroke="#3a414a" stroke-width="2" fill="#ced4db"/><use xlink:href="#c" transform="matrix(1,0,0,1,1645,615) translate(29.38042534722223 52.46527777777778)"/><use xlink:href="#d" transform="matrix(1,0,0,1,1645,615) translate(113.58181423611111 52.46527777777778)"/><path d="M1714 244c-13.26 0-24-10.75-24-24 0-10.6 6.5-19.55 16.58-22.82C1706 166 1746 160 1762 172c8-18 48-12 48 6 24-6 48 18 32 48 16 24 0 54-32 42-8 15.6-40 15.6-48 0-16 12-48 6-48-24z" stroke="#3a414a" stroke-width="2" fill="#edf5ff"/><use xlink:href="#e" transform="matrix(1,0,0,1,1695,165) translate(23.874348958333336 62.77777777777778)"/><use xlink:href="#f" transform="matrix(1,0,0,1,1695,165) translate(109.57313368055554 62.77777777777778)"/><path d="M1380 405.88a6 6 0 0 1 6-6h188a6 6 0 0 1 6 6v187.94a6 6 0 0 1-6 6h-188a6 6 0 0 1-6-6z" stroke="#3a414a" stroke-width="2" fill="#f2f3f5"/><use xlink:href="#g" transform="matrix(1,0,0,1,1385,404.88307193421633) translate(25.361111111111114 74.96527777777777)"/><use xlink:href="#h" transform="matrix(1,0,0,1,1385,404.88307193421633) translate(78.94184027777779 74.96527777777777)"/><use xlink:href="#i" transform="matrix(1,0,0,1,1385,404.88307193421633) translate(58.716145833333336 101.85329861111111)"/><use xlink:href="#j" transform="matrix(1,0,0,1,1385,404.88307193421633) translate(94.51258680555556 101.85329861111111)"/><use xlink:href="#k" transform="matrix(1,0,0,1,1385,404.88307193421633) translate(33.97113715277779 128.74131944444446)"/><path d="M1610.47 652.37l.07.9.2.83.34.8.45.74.56.66.65.56.74.45.8.35.84.2.88.07h6.6v.95h-6.64l-1-.08-.98-.25-.94-.4-.87-.52-.78-.66-.66-.77-.53-.87-.4-.94-.23-1-.07-1V589.9h.94zM1605 499.45l1 .24.94.38.87.53.78.67.66.78.53.86.4.95.23 1 .07.98v62.54h-.94v-62.5l-.07-.88-.2-.86-.34-.8-.45-.73-.56-.65-.65-.57-.74-.45-.8-.33-.84-.2-.88-.07h-22.48v-.95h22.52z" stroke="#3a414a" stroke-width=".05" fill="#3a414a"/><path d="M1581.5 500.33h-.5v-.95h.5z" fill="#3a414a"/><path stroke="#3a414a" stroke-width=".05" fill="#3a414a"/><path d="M1637.38 658.4l-14.26 4.63v-9.27z" fill="#3a414a"/><path d="M1638.92 658.4l-16.28 5.28V653.1zm-15.33 3.97l12.25-3.98-12.26-4z" stroke="#3a414a" stroke-width=".05" fill="#3a414a"/><use xlink:href="#l" transform="matrix(1,0,0,1,1604.4010407534527,568.3672197300124) translate(0 17.22222222222222)"/><path d="M1740.47 608.5h-.94v-12.75h.94z" stroke="#3a414a" stroke-width=".05" fill="#3a414a"/><path d="M1740.47 609h-.94v-.5h.94z" fill="#3a414a"/><path stroke="#3a414a" stroke-width=".05" fill="#3a414a"/><path d="M1743.78 574.25h-7.56l3.78-11.63z" fill="#3a414a"/><path d="M1744.28 574.25h-1l-3.28-10.1-3.28 10.1h-1l4.28-13.17z" stroke="#3a414a" stroke-width=".05" fill="#3a414a"/><use xlink:href="#l" transform="matrix(1,0,0,1,1734.4010416666667,574.2447916666666) translate(0 17.22222222222222)"/><path d="M1757.35 330.3h-11.33l-.88.07-.85.2-.8.33-.75.46-.66.56-.57.66-.45.74-.33.8-.2.84-.08.88v42.66h-.94v-42.7l.07-1 .24-.98.4-.94.52-.86.66-.78.77-.66.86-.53.94-.4 1-.22.98-.08h11.37zm29.3-6.46l-.08 1-.24 1-.4.92-.52.87-.65.77-.77.66-.87.53-.93.38-.98.24-1 .08h-11.38v-.95h11.33l.9-.07.83-.2.8-.33.74-.46.66-.57.56-.66.45-.74.33-.8.2-.84.07-.9v-26.77h.95z" stroke="#3a414a" stroke-width=".05" fill="#3a414a"/><path d="M1740.47 379h-.94v-.5h.94z" fill="#3a414a"/><path stroke="#3a414a" stroke-width=".05" fill="#3a414a"/><path d="M1790.8 296.53h-9.26l4.63-14.26z" fill="#3a414a"/><path d="M1791.46 297h-10.58l5.3-16.27zm-9.27-.94h7.95l-3.98-12.26z" stroke="#3a414a" stroke-width=".05" fill="#3a414a"/><use xlink:href="#m" transform="matrix(1,0,0,1,1757.3485087235867,319.0686514634504) translate(0 17.22222222222222)"/><path d="M2160 475.07c0 49.7-44.77 90-100 90s-100-40.3-100-90 44.77-90 100-90 100 40.3 100 90z" stroke="#3a414a" stroke-width="2" fill="#c3f7c8"/><use xlink:href="#n" transform="matrix(1,0,0,1,1965,390.07042253521115) translate(61.30274305555556 21.52777777777778)"/><use xlink:href="#o" transform="matrix(1,0,0,1,1965,390.07042253521115) translate(57.49414930555555 48.415798611111114)"/><path d="M2000 466.4a6 6 0 0 1 6-6h109.86a6 6 0 0 1 6 6v66.9a6 6 0 0 1-6 6H2006a6 6 0 0 1-6-6z" stroke="#3a414a" stroke-width="2" fill="#f2f3f5"/><use xlink:href="#e" transform="matrix(1,0,0,1,2012,472.41373239436604) translate(1.6312934027777857 35.27777777777778)"/><use xlink:href="#p" transform="matrix(1,0,0,1,2012,472.41373239436604) translate(87.330078125 35.27777777777778)"/><path d="M1910.3 434.4h-52.92v-.94h52.92zm59.1 0h-51.44v-.94h51.45z" stroke="#3a414a" stroke-width=".05" fill="#3a414a"/><path d="M1856.88 438.56l-14.26-4.63 14.26-4.63z" fill="#3a414a"/><path d="M1857.36 439.22l-16.28-5.3 16.28-5.28zm-13.2-5.3l12.25 4v-7.97z" stroke="#3a414a" stroke-width=".05" fill="#3a414a"/><path d="M1969.63 434.4h-.23v-.94h.78z" fill="#3a414a"/><path stroke="#3a414a" stroke-width=".05" fill="#3a414a"/><use xlink:href="#q" transform="matrix(1,0,0,1,1910.2956006486684,423.17501480246096) translate(0 17.22222222222222)"/><path d="M1982.62 500.33l-23.38.04-.08.1h-33.56v-.96l33.1.02.07-.1 23.85-.04zm-101.38-.84h33.16v.95h-33.63l-.08-.12h-39.2v-.95h39.66z" stroke="#3a414a" stroke-width=".05" fill="#3a414a"/><path d="M1841.5 500.33h-.5v-.95h.5z" fill="#3a414a"/><path stroke="#3a414a" stroke-width=".05" fill="#3a414a"/><path d="M1997.38 499.85l-14.26 4.64v-9.28z" fill="#3a414a"/><path d="M1998.92 499.85l-16.28 5.3v-10.6zm-15.33 3.98l12.25-3.98-12.26-3.98z" stroke="#3a414a" stroke-width=".05" fill="#3a414a"/><use xlink:href="#l" transform="matrix(1,0,0,1,1914.4010505512235,489.2447916666667) translate(0 17.22222222222222)"/><path d="M1400 320.93a6 6 0 0 1 6-6h228a6 6 0 0 1 6 6v48a6 6 0 0 1-6 6h-228a6 6 0 0 1-6-6z" fill="none"/><use xlink:href="#r" transform="matrix(1,0,0,1,1400,314.9295774647886) translate(40.697699652777786 38.083767361111114)"/><use xlink:href="#s" transform="matrix(1,0,0,1,1400,314.9295774647886) translate(95.15733506944446 38.083767361111114)"/><path d="M2028.58 640.72c0 22.5-20.25 40.72-45.24 40.72-25 0-45.24-18.23-45.24-40.72 0-22.5 20.25-40.72 45.24-40.72 25 0 45.24 18.23 45.24 40.72z" stroke="#3a414a" stroke-width="2" fill="#c3f7c8"/><path d="M1956.2 640.1a6 6 0 0 1 6-6h43.13a6 6 0 0 1 6 6v23.67a6 6 0 0 1-6 6h-43.14a6 6 0 0 1-6-6z" stroke="#3a414a" stroke-width="2" fill="#f2f3f5"/><path d="M2160 640.54c0 22.5-20.26 40.72-45.24 40.72-25 0-45.25-18.23-45.25-40.72 0-22.5 20.27-40.72 45.26-40.72 24.98 0 45.24 18.23 45.24 40.72z" stroke="#3a414a" stroke-width="2" fill="#c3f7c8"/><path d="M2087.6 639.9a6 6 0 0 1 6-6h43.14a6 6 0 0 1 6 6v23.7a6 6 0 0 1-6 6h-43.13a6 6 0 0 1-6-6z" stroke="#3a414a" stroke-width="2" fill="#f2f3f5"/><path d="M1841.5 534.46h1.05m4.22 0h2.1m4.23 0h2.1m4.22 0h2.1m4.22 0h2.1m4.23 0h2.1m4.22 0h2.1m4.22 0h2.1m4.22 0h1.06l.78.06m2.86 1.2l.6.5.5.6m1.2 2.86l.06.78v.98m0 3.9v1.96m0 3.9v1.95m0 3.9v1.97m0 3.9v1.95m0 3.9v1.96m0 3.9v1.96m0 3.9v1.95m0 3.9v1.96m0 3.92v1.95m0 3.9v1.96m0 3.9v1.96m0 3.9v1.95m0 3.9v1.96m0 3.92v1.95m0 3.9v1.96m0 3.9v1.96m0 3.9v1.95m0 3.9v.98l.06.78m1.18 2.88l.52.6.6.5m2.86 1.2l.78.05h.96m3.86 0h1.93m3.85 0h1.93m3.86 0h1.92m3.86 0h1.92m3.86 0h1.93m3.85 0h.96" stroke="#3a414a" fill="none"/><path d="M1841.5 534.93h-.5V534h.5z" stroke="#3a414a" stroke-width=".05" fill="#3a414a"/><path d="M1953.58 651.93l-14.27 4.64v-9.28z" stroke="#3a414a" fill="#3a414a"/><path d="M2052.63 651.28h.96v.95h-1l-.8-.07.07-.94zm6.83.95h-1.95v-.95h1.96zm5.87 0h-1.95v-.95h1.95zm4.9 0h-.98v-.95h.98zm-21.53-2.57l.57.48-.6.73-.64-.54-.53-.62.72-.6zm-1.6-3.93l.05.77-.95.07-.06-.8v-1.05h.95zm0-5.16h-.96v-2.07h.95zm0-6.22h-.96v-2.07h.95zm0-6.22h-.96v-2.07h.95zm0-6.22h-.96v-2.06h.95zm0-6.2h-.96v-2.08h.95zm0-6.23h-.96v-2.07h.95zm0-6.22h-.96v-2.07h.95zm0-7.27v1.06h-.96v-1.02l-.06-.76.94-.08zm-1.9-4.56l.52.63-.72.6-.48-.56-.57-.5.62-.7zm-3.77-1.83l-.07.93-.77-.05h-1v-.96h1.03zm-105.4-.08h1v.96h-1.05l-.8-.07.08-.93zm7.15.96h-2.05v-.96h2.05zm6.15 0h-2.05v-.96h2.05zm6.16 0h-2.07v-.96h2.06zm6.14 0h-2.05v-.96h2.04zm6.15 0h-2.06v-.96h2.05zm6.15 0h-2.05v-.96h2.05zm6.15 0h-2.05v-.96h2.05zm6.15 0h-2.05v-.96h2.05zm6.16 0h-2.04v-.96h2.05zm6.16 0h-2.05v-.96h2.06zm6.15 0h-2.04v-.96h2.05zm6.17 0h-2.05v-.96h2.05zm6.15 0h-2.05v-.96h2.05zm6.16 0h-2.06v-.96h2.06zm6.15 0h-2.05v-.96h2.05zm6.15 0h-2.05v-.96h2.05zm-103.4-2.57l.58.5-.62.7-.62-.52-.53-.63.7-.6zm-1.6-3.92l.06.76-.95.08-.07-.8V583h.94zm0-4.98h-.95v-2h.94zm0-6h-.95v-2h.94zm0-6h-.95v-2h.94zm0-6h-.95v-2h.94zm0-6h-.95v-2h.94zm0-6h-.95v-2h.94zm0-6h-.95v-2h.94zm0-6h-.95v-2h.94zm0-6h-.95v-2h.94zm0-6h-.95v-2h.94zm0-6h-.95v-2h.94zm0-6h-.95v-2h.94zm0-6h-.95v-2h.94zm0-6h-.95v-2h.94zm0-6h-.95v-2h.94zm0-6h-.95v-2h.94zm0-6h-.95v-2h.94zm0-7.02V477h-.95v-.98l-.07-.76.95-.08zm-1.9-4.56l.53.63-.7.6-.5-.56-.56-.5.62-.7zm-3.76-1.83l-.08.94-.76-.06h-.96v-.96h1zm-82.34.88h-.98v-.96h.98zm5.9 0h-1.97v-.96h1.97zm5.9 0h-1.98v-.96h1.97zm5.88 0h-1.96v-.96h1.96zm5.9 0h-1.97v-.96h1.95zm5.9 0h-1.98v-.96h1.97zm5.88 0h-1.96v-.96h1.96zm5.9 0h-1.97v-.96h1.96zm5.88 0h-1.96v-.96h1.96zm5.9 0h-1.97v-.96h1.97zm5.9 0h-1.97v-.96h1.96zm5.88 0h-1.96v-.96h1.96zm5.9 0h-1.97v-.96h1.97zm5.9 0h-1.97v-.96h1.96z" stroke="#3a414a" stroke-width=".05" fill="#3a414a"/><path d="M1841.5 470.48h-.5v-.96h.5z" fill="#3a414a"/><path stroke="#3a414a" stroke-width=".05" fill="#3a414a"/><path d="M2085 651.75l-14.27 4.64v-9.28z" fill="#3a414a"/><path d="M2086.53 651.75l-16.28 5.3v-10.6zm-15.33 3.98l12.26-3.98-12.26-3.98z" stroke="#3a414a" stroke-width=".05" fill="#3a414a"/><defs><path d="M789 20c-398 0-667-293-667-764 0-473 273-766 655-766 315 0 558 198 612 487h-196c-61-191-204-311-415-311-262 0-471 207-471 590 0 380 208 588 482 588 249 0 420-165 425-427H828v-166h572v163c0 370-256 606-611 606" id="t"/><path d="M613 24c-304 0-509-231-509-576 0-350 205-580 509-580 305 0 511 230 511 580 0 345-206 576-511 576zm0-161c226 0 329-195 329-415 0-222-103-419-329-419-223 0-326 196-326 419 0 220 103 415 326 415" id="u"/><path d="M677 24c-213 0-288-135-325-197h-20V0H158v-1490h180v551h14c37-59 106-193 324-193 279 0 474 222 474 576 0 356-194 580-473 580zm-27-161c209 0 317-186 317-421 0-232-105-413-317-413-206 0-314 166-314 413 0 249 111 421 314 421" id="v"/><path d="M338-1490V0H158v-1490h180" id="w"/><path d="M158 0v-1118h180V0H158zm91-1301c-68 0-125-53-125-119s57-119 125-119c69 0 126 53 126 119s-57 119-126 119" id="x"/><path d="M338-670V0H158v-1118h173l1 207c72-158 192-221 342-221 226 0 378 139 378 422V0H872v-695c0-172-96-275-252-275-161 0-282 109-282 300" id="y"/><g id="a"><use transform="matrix(0.010850694444444444,0,0,0.010850694444444444,0,0)" xlink:href="#t"/><use transform="matrix(0.010850694444444444,0,0,0.010850694444444444,16.57986111111111,0)" xlink:href="#u"/><use transform="matrix(0.010850694444444444,0,0,0.010850694444444444,29.90451388888889,0)" xlink:href="#v"/><use transform="matrix(0.010850694444444444,0,0,0.010850694444444444,43.511284722222214,0)" xlink:href="#w"/><use transform="matrix(0.010850694444444444,0,0,0.010850694444444444,48.89322916666666,0)" xlink:href="#x"/><use transform="matrix(0.010850694444444444,0,0,0.010850694444444444,54.2751736111111,0)" xlink:href="#y"/></g><path d="M657 26c-323 0-524-166-541-416h195c15 169 171 246 346 246 202 0 356-106 356-265 5-203-294-238-475-293-239-73-380-191-380-389 0-252 224-419 512-419 294 0 499 171 508 396H992c-17-145-151-228-328-228-193 0-321 102-321 242 0 156 175 211 284 241l149 41c160 44 422 134 422 412 0 244-197 432-541 432" id="z"/><path d="M628 24c-324 0-524-230-524-574 0-343 198-582 503-582 237 0 487 146 487 559v75H286c9 234 145 362 343 362 132 0 231-58 273-172l174 48C1024-91 857 24 628 24zM287-650h624c-17-190-120-322-304-322-192 0-309 151-320 322" id="A"/><path d="M158 0v-1118h174v172h12c41-113 157-188 290-188 26 0 70 2 91 3v181c-11-2-60-10-108-10-161 0-279 109-279 260V0H158" id="B"/><path d="M481 0L54-1118h197c107 314 236 620 325 951 87-331 217-637 324-951h197L670 0H481" id="C"/><g id="b"><use transform="matrix(0.010850694444444444,0,0,0.010850694444444444,0,0)" xlink:href="#z"/><use transform="matrix(0.010850694444444444,0,0,0.010850694444444444,14.2578125,0)" xlink:href="#A"/><use transform="matrix(0.010850694444444444,0,0,0.010850694444444444,27.213541666666664,0)" xlink:href="#B"/><use transform="matrix(0.010850694444444444,0,0,0.010850694444444444,35.92664930555555,0)" xlink:href="#C"/><use transform="matrix(0.010850694444444444,0,0,0.010850694444444444,47.98177083333333,0)" xlink:href="#A"/><use transform="matrix(0.010850694444444444,0,0,0.010850694444444444,60.937499999999986,0)" xlink:href="#B"/></g><path d="M140 405l46-156c120 36 205 19 263-150l32-93L54-1118h197c107 313 237 620 324 950 87-331 219-637 326-950h196L606 167c-68 178-176 259-334 259-64 0-113-12-132-21" id="D"/><path d="M538 24C308 24 148-78 108-271l171-41c32 123 123 178 257 178 156 0 256-77 256-169 0-77-54-128-164-154l-186-44c-203-48-300-148-300-305 0-192 176-326 414-326 230 0 351 112 402 269l-163 42c-31-80-94-158-238-158-133 0-233 69-233 162 0 83 57 129 188 160l169 40c203 48 298 149 298 302 0 196-179 339-441 339" id="E"/><path d="M598-1118v154H368v674c0 100 37 144 132 144 23 0 62-6 92-12L629-6c-37 13-88 20-134 20-193 0-307-107-307-290v-688H20v-154h168v-266h180v266h230" id="F"/><path d="M158 0v-1118h175l1 205c55-151 181-225 313-225 147 0 245 90 285 228 53-141 190-228 352-228 194 0 352 125 352 384V0h-181v-749c0-161-105-225-225-225-151 0-243 103-243 244V0H807v-767c0-124-93-207-219-207-131 0-250 92-250 270V0H158" id="G"/><g id="c"><use transform="matrix(0.010850694444444444,0,0,0.010850694444444444,0,0)" xlink:href="#z"/><use transform="matrix(0.010850694444444444,0,0,0.010850694444444444,14.2578125,0)" xlink:href="#D"/><use transform="matrix(0.010850694444444444,0,0,0.010850694444444444,26.74696180555556,0)" xlink:href="#E"/><use transform="matrix(0.010850694444444444,0,0,0.010850694444444444,38.4765625,0)" xlink:href="#F"/><use transform="matrix(0.010850694444444444,0,0,0.010850694444444444,45.5295138888889,0)" xlink:href="#A"/><use transform="matrix(0.010850694444444444,0,0,0.010850694444444444,58.48524305555555,0)" xlink:href="#G"/></g><path d="M645 0H180v-1490h484c435 0 692 280 692 742 0 466-257 748-711 748zM370-168h263c363 0 539-218 539-580 0-358-176-574-521-574H370v1154" id="H"/><path d="M180 0v-1490h224l606 953c40 63 108 177 176 312-27-437-7-821-13-1265h190V0h-226C860-448 622-778 356-1262c27 476 11 792 15 1262H180" id="I"/><g id="d"><use transform="matrix(0.010850694444444444,0,0,0.010850694444444444,0,0)" xlink:href="#H"/><use transform="matrix(0.010850694444444444,0,0,0.010850694444444444,16.03732638888889,0)" xlink:href="#I"/><use transform="matrix(0.010850694444444444,0,0,0.010850694444444444,32.77994791666667,0)" xlink:href="#z"/></g><path d="M613 24c-304 0-509-231-509-576 0-350 205-580 509-580 216 0 392 114 453 309l-173 49c-33-115-133-197-280-197-223 0-326 196-326 419 0 220 103 415 326 415 150 0 252-85 285-206l172 49C1010-95 832 24 613 24" id="J"/><g id="e"><use transform="matrix(0.010850694444444444,0,0,0.010850694444444444,0,0)" xlink:href="#z"/><use transform="matrix(0.010850694444444444,0,0,0.010850694444444444,14.2578125,0)" xlink:href="#A"/><use transform="matrix(0.010850694444444444,0,0,0.010850694444444444,27.213541666666664,0)" xlink:href="#B"/><use transform="matrix(0.010850694444444444,0,0,0.010850694444444444,35.92664930555555,0)" xlink:href="#C"/><use transform="matrix(0.010850694444444444,0,0,0.010850694444444444,48.41579861111111,0)" xlink:href="#x"/><use transform="matrix(0.010850694444444444,0,0,0.010850694444444444,53.79774305555556,0)" xlink:href="#J"/><use transform="matrix(0.010850694444444444,0,0,0.010850694444444444,66.49305555555554,0)" xlink:href="#A"/></g><path d="M154 0v-137l495-537c165-179 249-281 249-418 0-156-121-253-280-253-170 0-278 110-278 278H158c0-264 200-443 465-443 266 0 455 183 455 416 0 161-73 288-336 568L416-179v12h687V0H154" id="K"/><use transform="matrix(0.010850694444444444,0,0,0.010850694444444444,0,0)" xlink:href="#K" id="f"/><path d="M458 0L52-1490h194c108 439 233 855 324 1313 92-459 221-873 331-1313h216c110 438 234 854 330 1307 92-455 216-869 323-1307h196L1558 0h-221l-256-944c-26-95-50-200-73-331-22 122-44 223-73 331L680 0H458" id="L"/><g id="g"><use transform="matrix(0.010850694444444444,0,0,0.010850694444444444,0,0)" xlink:href="#L"/><use transform="matrix(0.010850694444444444,0,0,0.010850694444444444,20.768229166666668,0)" xlink:href="#A"/><use transform="matrix(0.010850694444444444,0,0,0.010850694444444444,33.723958333333336,0)" xlink:href="#v"/></g><path d="M180 0v-1490h528c311 0 458 177 458 395 0 191-114 278-244 313v14c139 9 302 137 302 371 0 225-148 397-499 397H180zm190-168h350c232 0 321-102 321-231 0-149-120-277-311-277H370v508zm0-668h328c160 0 286-101 286-255 0-129-87-231-280-231H370v486" id="M"/><path d="M409 0L70-1118h191c89 329 165 560 243 925 75-353 154-601 240-925h192c85 325 161 564 235 922 77-354 157-598 244-922h191L1267 0h-179c-86-307-176-590-250-913C763-588 675-308 588 0H409" id="N"/><g id="h"><use transform="matrix(0.010850694444444444,0,0,0.010850694444444444,0,0)" xlink:href="#M"/><use transform="matrix(0.010850694444444444,0,0,0.010850694444444444,14.539930555555555,0)" xlink:href="#B"/><use transform="matrix(0.010850694444444444,0,0,0.010850694444444444,22.53689236111111,0)" xlink:href="#u"/><use transform="matrix(0.010850694444444444,0,0,0.010850694444444444,35.46006944444444,0)" xlink:href="#N"/><use transform="matrix(0.010850694444444444,0,0,0.010850694444444444,53.64583333333333,0)" xlink:href="#E"/><use transform="matrix(0.010850694444444444,0,0,0.010850694444444444,65.37543402777777,0)" xlink:href="#A"/><use transform="matrix(0.010850694444444444,0,0,0.010850694444444444,78.33116319444444,0)" xlink:href="#B"/></g><path d="M218-607c0-325 108-727 258-974h175c-155 315-250 682-250 974 0 265 78 531 250 886H476C306-10 218-315 218-607" id="O"/><g id="i"><use transform="matrix(0.010850694444444444,0,0,0.010850694444444444,0,0)" xlink:href="#O"/><use transform="matrix(0.010850694444444444,0,0,0.010850694444444444,7.855902777777778,0)" xlink:href="#u"/><use transform="matrix(0.010850694444444444,0,0,0.010850694444444444,21.180555555555554,0)" xlink:href="#B"/></g><path d="M471 26C259 26 90-98 90-318c0-256 228-303 435-329 202-27 287-16 287-108 0-139-79-219-234-219-161 0-248 86-283 164l-173-57c86-203 278-265 451-265 150 0 419 46 419 395V0H815v-152h-12C765-73 660 26 471 26zm31-159c199 0 310-134 310-271v-155c-30 35-226 55-295 64-131 17-246 59-246 186 0 116 97 176 231 176" id="P"/><g id="j"><use transform="matrix(0.010850694444444444,0,0,0.010850694444444444,0,0)" xlink:href="#P"/><use transform="matrix(0.010850694444444444,0,0,0.010850694444444444,12.47829861111111,0)" xlink:href="#y"/><use transform="matrix(0.010850694444444444,0,0,0.010850694444444444,25.282118055555554,0)" xlink:href="#D"/></g><path d="M158 418v-1536h174v179h20c37-59 106-193 324-193 279 0 474 222 474 576 0 356-194 580-473 580-213 0-288-135-325-197h-14v591H158zm492-555c209 0 317-186 317-421 0-232-105-413-317-413-206 0-314 166-314 413 0 249 111 421 314 421" id="Q"/><path d="M96 279C273-86 346-350 346-607c0-292-95-659-250-974h175c150 246 258 650 258 974 0 297-91 602-258 886H96" id="R"/><g id="k"><use transform="matrix(0.010850694444444444,0,0,0.010850694444444444,0,0)" xlink:href="#P"/><use transform="matrix(0.010850694444444444,0,0,0.010850694444444444,12.47829861111111,0)" xlink:href="#Q"/><use transform="matrix(0.010850694444444444,0,0,0.010850694444444444,26.085069444444443,0)" xlink:href="#Q"/><use transform="matrix(0.010850694444444444,0,0,0.010850694444444444,39.69184027777777,0)" xlink:href="#w"/><use transform="matrix(0.010850694444444444,0,0,0.010850694444444444,45.07378472222221,0)" xlink:href="#x"/><use transform="matrix(0.010850694444444444,0,0,0.010850694444444444,50.45572916666666,0)" xlink:href="#J"/><use transform="matrix(0.010850694444444444,0,0,0.010850694444444444,63.36805555555554,0)" xlink:href="#P"/><use transform="matrix(0.010850694444444444,0,0,0.010850694444444444,75.84635416666666,0)" xlink:href="#F"/><use transform="matrix(0.010850694444444444,0,0,0.010850694444444444,83.11631944444443,0)" xlink:href="#x"/><use transform="matrix(0.010850694444444444,0,0,0.010850694444444444,88.49826388888887,0)" xlink:href="#u"/><use transform="matrix(0.010850694444444444,0,0,0.010850694444444444,101.82291666666664,0)" xlink:href="#y"/><use transform="matrix(0.010850694444444444,0,0,0.010850694444444444,114.95225694444441,0)" xlink:href="#R"/></g><path fill="#1071e5" d="M124 0v-220l528-495c135-132 210-216 210-336 0-133-98-215-231-215-139 0-229 88-229 233H110c0-290 214-477 523-477 315 0 525 182 525 440 0 167-80 305-385 586L548-262v11h630V0H124" id="S"/><use transform="matrix(0.008680555555555556,0,0,0.008680555555555556,0,0)" xlink:href="#S" id="l"/><path fill="#1071e5" d="M659 20C335 20 103-159 99-418h307c5 112 113 185 254 185 147 0 250-83 250-204 0-123-105-209-278-209H494v-227h138c145 0 246-81 246-200 0-115-87-193-216-193-130 0-237 73-240 189H128c4-255 233-433 536-433 306 0 510 185 510 418 0 167-114 285-279 317v11c217 29 333 162 333 347 0 254-237 437-569 437" id="T"/><use transform="matrix(0.008680555555555556,0,0,0.008680555555555556,0,0)" xlink:href="#T" id="m"/><g id="n"><use transform="matrix(0.010850694444444444,0,0,0.010850694444444444,0,0)" xlink:href="#t"/><use transform="matrix(0.010850694444444444,0,0,0.010850694444444444,16.57986111111111,0)" xlink:href="#u"/><use transform="matrix(0.010850694444444444,0,0,0.010850694444444444,29.90451388888889,0)" xlink:href="#v"/><use transform="matrix(0.010850694444444444,0,0,0.010850694444444444,43.511284722222214,0)" xlink:href="#w"/><use transform="matrix(0.010850694444444444,0,0,0.010850694444444444,48.89322916666666,0)" xlink:href="#x"/><use transform="matrix(0.010850694444444444,0,0,0.010850694444444444,54.2751736111111,0)" xlink:href="#y"/></g><path d="M180 0v-1490h510c348 0 508 194 508 460 0 198-88 351-276 417L1256 0h-220L726-579c-117 2-238 0-356 1V0H180zm190-747h312c235 0 327-108 327-283 0-177-92-293-329-293H370v576" id="U"/><path d="M537 14c-226 0-379-139-379-422v-710h180v695c0 172 97 275 253 275 160 0 281-109 281-300v-670h181V0H879v-209C806-46 684 14 537 14" id="V"/><g id="o"><use transform="matrix(0.010850694444444444,0,0,0.010850694444444444,0,0)" xlink:href="#U"/><use transform="matrix(0.010850694444444444,0,0,0.010850694444444444,14.301215277777777,0)" xlink:href="#V"/><use transform="matrix(0.010850694444444444,0,0,0.010850694444444444,27.44140625,0)" xlink:href="#y"/><use transform="matrix(0.010850694444444444,0,0,0.010850694444444444,40.57074652777778,0)" xlink:href="#y"/><use transform="matrix(0.010850694444444444,0,0,0.010850694444444444,53.70008680555556,0)" xlink:href="#A"/><use transform="matrix(0.010850694444444444,0,0,0.010850694444444444,66.65581597222223,0)" xlink:href="#B"/></g><path d="M653-1490V0H466v-1314h-10L96-1047v-204l324-239h233" id="W"/><use transform="matrix(0.010850694444444444,0,0,0.010850694444444444,0,0)" xlink:href="#W" id="p"/><path fill="#1071e5" d="M749-1490V0H444v-1221h-10L93-980v-279l329-231h327" id="X"/><use transform="matrix(0.008680555555555556,0,0,0.008680555555555556,0,0)" xlink:href="#X" id="q"/><path d="M600 0v-610L52-1490h220l295 481c50 82 90 150 130 243 40-96 80-164 128-243l294-481h219L790-610V0H600" id="Y"/><g id="r"><use transform="matrix(0.010850694444444444,0,0,0.010850694444444444,0,0)" xlink:href="#Y"/><use transform="matrix(0.010850694444444444,0,0,0.010850694444444444,13.37890625,0)" xlink:href="#u"/><use transform="matrix(0.010850694444444444,0,0,0.010850694444444444,26.70355902777778,0)" xlink:href="#V"/><use transform="matrix(0.010850694444444444,0,0,0.010850694444444444,39.84375,0)" xlink:href="#B"/></g><path d="M783 20c-382 0-661-292-661-764 0-473 279-766 661-766 302 0 548 182 601 489h-190c-42-204-217-313-411-313-268 0-476 208-476 590 0 381 209 588 476 588 195 0 369-110 411-313h190c-52 303-296 489-601 489" id="Z"/><g id="s"><use transform="matrix(0.010850694444444444,0,0,0.010850694444444444,0,0)" xlink:href="#Z"/><use transform="matrix(0.010850694444444444,0,0,0.010850694444444444,16.23263888888889,0)" xlink:href="#u"/><use transform="matrix(0.010850694444444444,0,0,0.010850694444444444,29.557291666666664,0)" xlink:href="#G"/><use transform="matrix(0.010850694444444444,0,0,0.010850694444444444,49.0234375,0)" xlink:href="#Q"/><use transform="matrix(0.010850694444444444,0,0,0.010850694444444444,62.63020833333333,0)" xlink:href="#V"/><use transform="matrix(0.010850694444444444,0,0,0.010850694444444444,75.77039930555554,0)" xlink:href="#F"/><use transform="matrix(0.010850694444444444,0,0,0.010850694444444444,82.82335069444443,0)" xlink:href="#A"/><use transform="matrix(0.010850694444444444,0,0,0.010850694444444444,95.77907986111111,0)" xlink:href="#B"/></g></defs></g></svg>